<svg xmlns="http://www.w3.org/2000/svg" width="512" height="512" viewBox="0 0 512 512">
  <rect width="512" height="512" fill="#000000"/>
  <rect x="0" y="0" width="16" height="16" fill="#e60012"/>
<rect x="16" y="0" width="16" height="16" fill="#e60012"/>
<rect x="32" y="0" width="16" height="16" fill="#e60012"/>
<rect x="48" y="0" width="16" height="16" fill="#e60012"/>
<rect x="64" y="0" width="16" height="16" fill="#e60012"/>
<rect x="80" y="0" width="16" height="16" fill="#e60012"/>
<rect x="96" y="0" width="16" height="16" fill="#e60012"/>
<rect x="112" y="0" width="16" height="16" fill="#e60012"/>
<rect x="128" y="0" width="16" height="16" fill="#e60012"/>
<rect x="144" y="0" width="16" height="16" fill="#e60012"/>
<rect x="160" y="0" width="16" height="16" fill="#e60012"/>
<rect x="176" y="0" width="16" height="16" fill="#e60012"/>
<rect x="192" y="0" width="16" height="16" fill="#e60012"/>
<rect x="208" y="0" width="16" height="16" fill="#e60012"/>
<rect x="224" y="0" width="16" height="16" fill="#e60012"/>
<rect x="240" y="0" width="16" height="16" fill="#e60012"/>
<rect x="256" y="0" width="16" height="16" fill="#e60012"/>
<rect x="272" y="0" width="16" height="16" fill="#e60012"/>
<rect x="288" y="0" width="16" height="16" fill="#e60012"/>
<rect x="304" y="0" width="16" height="16" fill="#e60012"/>
<rect x="320" y="0" width="16" height="16" fill="#e60012"/>
<rect x="336" y="0" width="16" height="16" fill="#e60012"/>
<rect x="352" y="0" width="16" height="16" fill="#e60012"/>
<rect x="368" y="0" width="16" height="16" fill="#e60012"/>
<rect x="384" y="0" width="16" height="16" fill="#e60012"/>
<rect x="400" y="0" width="16" height="16" fill="#e60012"/>
<rect x="416" y="0" width="16" height="16" fill="#e60012"/>
<rect x="432" y="0" width="16" height="16" fill="#e60012"/>
<rect x="448" y="0" width="16" height="16" fill="#e60012"/>
<rect x="464" y="0" width="16" height="16" fill="#e60012"/>
<rect x="480" y="0" width="16" height="16" fill="#e60012"/>
<rect x="496" y="0" width="16" height="16" fill="#e60012"/>
<rect x="0" y="496" width="16" height="16" fill="#e60012"/>
<rect x="16" y="496" width="16" height="16" fill="#e60012"/>
<rect x="32" y="496" width="16" height="16" fill="#e60012"/>
<rect x="48" y="496" width="16" height="16" fill="#e60012"/>
<rect x="64" y="496" width="16" height="16" fill="#e60012"/>
<rect x="80" y="496" width="16" height="16" fill="#e60012"/>
<rect x="96" y="496" width="16" height="16" fill="#e60012"/>
<rect x="112" y="496" width="16" height="16" fill="#e60012"/>
<rect x="128" y="496" width="16" height="16" fill="#e60012"/>
<rect x="144" y="496" width="16" height="16" fill="#e60012"/>
<rect x="160" y="496" width="16" height="16" fill="#e60012"/>
<rect x="176" y="496" width="16" height="16" fill="#e60012"/>
<rect x="192" y="496" width="16" height="16" fill="#e60012"/>
<rect x="208" y="496" width="16" height="16" fill="#e60012"/>
<rect x="224" y="496" width="16" height="16" fill="#e60012"/>
<rect x="240" y="496" width="16" height="16" fill="#e60012"/>
<rect x="256" y="496" width="16" height="16" fill="#e60012"/>
<rect x="272" y="496" width="16" height="16" fill="#e60012"/>
<rect x="288" y="496" width="16" height="16" fill="#e60012"/>
<rect x="304" y="496" width="16" height="16" fill="#e60012"/>
<rect x="320" y="496" width="16" height="16" fill="#e60012"/>
<rect x="336" y="496" width="16" height="16" fill="#e60012"/>
<rect x="352" y="496" width="16" height="16" fill="#e60012"/>
<rect x="368" y="496" width="16" height="16" fill="#e60012"/>
<rect x="384" y="496" width="16" height="16" fill="#e60012"/>
<rect x="400" y="496" width="16" height="16" fill="#e60012"/>
<rect x="416" y="496" width="16" height="16" fill="#e60012"/>
<rect x="432" y="496" width="16" height="16" fill="#e60012"/>
<rect x="448" y="496" width="16" height="16" fill="#e60012"/>
<rect x="464" y="496" width="16" height="16" fill="#e60012"/>
<rect x="480" y="496" width="16" height="16" fill="#e60012"/>
<rect x="496" y="496" width="16" height="16" fill="#e60012"/>
<rect x="0" y="16" width="16" height="16" fill="#e60012"/>
<rect x="0" y="32" width="16" height="16" fill="#e60012"/>
<rect x="0" y="48" width="16" height="16" fill="#e60012"/>
<rect x="0" y="64" width="16" height="16" fill="#e60012"/>
<rect x="0" y="80" width="16" height="16" fill="#e60012"/>
<rect x="0" y="96" width="16" height="16" fill="#e60012"/>
<rect x="0" y="112" width="16" height="16" fill="#e60012"/>
<rect x="0" y="128" width="16" height="16" fill="#e60012"/>
<rect x="0" y="144" width="16" height="16" fill="#e60012"/>
<rect x="0" y="160" width="16" height="16" fill="#e60012"/>
<rect x="0" y="176" width="16" height="16" fill="#e60012"/>
<rect x="0" y="192" width="16" height="16" fill="#e60012"/>
<rect x="0" y="208" width="16" height="16" fill="#e60012"/>
<rect x="0" y="224" width="16" height="16" fill="#e60012"/>
<rect x="0" y="240" width="16" height="16" fill="#e60012"/>
<rect x="0" y="256" width="16" height="16" fill="#e60012"/>
<rect x="0" y="272" width="16" height="16" fill="#e60012"/>
<rect x="0" y="288" width="16" height="16" fill="#e60012"/>
<rect x="0" y="304" width="16" height="16" fill="#e60012"/>
<rect x="0" y="320" width="16" height="16" fill="#e60012"/>
<rect x="0" y="336" width="16" height="16" fill="#e60012"/>
<rect x="0" y="352" width="16" height="16" fill="#e60012"/>
<rect x="0" y="368" width="16" height="16" fill="#e60012"/>
<rect x="0" y="384" width="16" height="16" fill="#e60012"/>
<rect x="0" y="400" width="16" height="16" fill="#e60012"/>
<rect x="0" y="416" width="16" height="16" fill="#e60012"/>
<rect x="0" y="432" width="16" height="16" fill="#e60012"/>
<rect x="0" y="448" width="16" height="16" fill="#e60012"/>
<rect x="0" y="464" width="16" height="16" fill="#e60012"/>
<rect x="0" y="480" width="16" height="16" fill="#e60012"/>
<rect x="496" y="16" width="16" height="16" fill="#e60012"/>
<rect x="496" y="32" width="16" height="16" fill="#e60012"/>
<rect x="496" y="48" width="16" height="16" fill="#e60012"/>
<rect x="496" y="64" width="16" height="16" fill="#e60012"/>
<rect x="496" y="80" width="16" height="16" fill="#e60012"/>
<rect x="496" y="96" width="16" height="16" fill="#e60012"/>
<rect x="496" y="112" width="16" height="16" fill="#e60012"/>
<rect x="496" y="128" width="16" height="16" fill="#e60012"/>
<rect x="496" y="144" width="16" height="16" fill="#e60012"/>
<rect x="496" y="160" width="16" height="16" fill="#e60012"/>
<rect x="496" y="176" width="16" height="16" fill="#e60012"/>
<rect x="496" y="192" width="16" height="16" fill="#e60012"/>
<rect x="496" y="208" width="16" height="16" fill="#e60012"/>
<rect x="496" y="224" width="16" height="16" fill="#e60012"/>
<rect x="496" y="240" width="16" height="16" fill="#e60012"/>
<rect x="496" y="256" width="16" height="16" fill="#e60012"/>
<rect x="496" y="272" width="16" height="16" fill="#e60012"/>
<rect x="496" y="288" width="16" height="16" fill="#e60012"/>
<rect x="496" y="304" width="16" height="16" fill="#e60012"/>
<rect x="496" y="320" width="16" height="16" fill="#e60012"/>
<rect x="496" y="336" width="16" height="16" fill="#e60012"/>
<rect x="496" y="352" width="16" height="16" fill="#e60012"/>
<rect x="496" y="368" width="16" height="16" fill="#e60012"/>
<rect x="496" y="384" width="16" height="16" fill="#e60012"/>
<rect x="496" y="400" width="16" height="16" fill="#e60012"/>
<rect x="496" y="416" width="16" height="16" fill="#e60012"/>
<rect x="496" y="432" width="16" height="16" fill="#e60012"/>
<rect x="496" y="448" width="16" height="16" fill="#e60012"/>
<rect x="496" y="464" width="16" height="16" fill="#e60012"/>
<rect x="496" y="480" width="16" height="16" fill="#e60012"/>
<rect x="32" y="32" width="16" height="16" fill="#e60012"/>
<rect x="48" y="32" width="16" height="16" fill="#e60012"/>
<rect x="64" y="32" width="16" height="16" fill="#e60012"/>
<rect x="80" y="32" width="16" height="16" fill="#e60012"/>
<rect x="96" y="32" width="16" height="16" fill="#e60012"/>
<rect x="112" y="32" width="16" height="16" fill="#e60012"/>
<rect x="128" y="32" width="16" height="16" fill="#e60012"/>
<rect x="144" y="32" width="16" height="16" fill="#e60012"/>
<rect x="160" y="32" width="16" height="16" fill="#e60012"/>
<rect x="176" y="32" width="16" height="16" fill="#e60012"/>
<rect x="192" y="32" width="16" height="16" fill="#e60012"/>
<rect x="208" y="32" width="16" height="16" fill="#e60012"/>
<rect x="224" y="32" width="16" height="16" fill="#e60012"/>
<rect x="240" y="32" width="16" height="16" fill="#e60012"/>
<rect x="256" y="32" width="16" height="16" fill="#e60012"/>
<rect x="272" y="32" width="16" height="16" fill="#e60012"/>
<rect x="288" y="32" width="16" height="16" fill="#e60012"/>
<rect x="304" y="32" width="16" height="16" fill="#e60012"/>
<rect x="320" y="32" width="16" height="16" fill="#e60012"/>
<rect x="336" y="32" width="16" height="16" fill="#e60012"/>
<rect x="352" y="32" width="16" height="16" fill="#e60012"/>
<rect x="368" y="32" width="16" height="16" fill="#e60012"/>
<rect x="384" y="32" width="16" height="16" fill="#e60012"/>
<rect x="400" y="32" width="16" height="16" fill="#e60012"/>
<rect x="416" y="32" width="16" height="16" fill="#e60012"/>
<rect x="432" y="32" width="16" height="16" fill="#e60012"/>
<rect x="448" y="32" width="16" height="16" fill="#e60012"/>
<rect x="464" y="32" width="16" height="16" fill="#e60012"/>
<rect x="32" y="464" width="16" height="16" fill="#e60012"/>
<rect x="48" y="464" width="16" height="16" fill="#e60012"/>
<rect x="64" y="464" width="16" height="16" fill="#e60012"/>
<rect x="80" y="464" width="16" height="16" fill="#e60012"/>
<rect x="96" y="464" width="16" height="16" fill="#e60012"/>
<rect x="112" y="464" width="16" height="16" fill="#e60012"/>
<rect x="128" y="464" width="16" height="16" fill="#e60012"/>
<rect x="144" y="464" width="16" height="16" fill="#e60012"/>
<rect x="160" y="464" width="16" height="16" fill="#e60012"/>
<rect x="176" y="464" width="16" height="16" fill="#e60012"/>
<rect x="192" y="464" width="16" height="16" fill="#e60012"/>
<rect x="208" y="464" width="16" height="16" fill="#e60012"/>
<rect x="224" y="464" width="16" height="16" fill="#e60012"/>
<rect x="240" y="464" width="16" height="16" fill="#e60012"/>
<rect x="256" y="464" width="16" height="16" fill="#e60012"/>
<rect x="272" y="464" width="16" height="16" fill="#e60012"/>
<rect x="288" y="464" width="16" height="16" fill="#e60012"/>
<rect x="304" y="464" width="16" height="16" fill="#e60012"/>
<rect x="320" y="464" width="16" height="16" fill="#e60012"/>
<rect x="336" y="464" width="16" height="16" fill="#e60012"/>
<rect x="352" y="464" width="16" height="16" fill="#e60012"/>
<rect x="368" y="464" width="16" height="16" fill="#e60012"/>
<rect x="384" y="464" width="16" height="16" fill="#e60012"/>
<rect x="400" y="464" width="16" height="16" fill="#e60012"/>
<rect x="416" y="464" width="16" height="16" fill="#e60012"/>
<rect x="432" y="464" width="16" height="16" fill="#e60012"/>
<rect x="448" y="464" width="16" height="16" fill="#e60012"/>
<rect x="464" y="464" width="16" height="16" fill="#e60012"/>
<rect x="32" y="48" width="16" height="16" fill="#e60012"/>
<rect x="32" y="64" width="16" height="16" fill="#e60012"/>
<rect x="32" y="80" width="16" height="16" fill="#e60012"/>
<rect x="32" y="96" width="16" height="16" fill="#e60012"/>
<rect x="32" y="112" width="16" height="16" fill="#e60012"/>
<rect x="32" y="128" width="16" height="16" fill="#e60012"/>
<rect x="32" y="144" width="16" height="16" fill="#e60012"/>
<rect x="32" y="160" width="16" height="16" fill="#e60012"/>
<rect x="32" y="176" width="16" height="16" fill="#e60012"/>
<rect x="32" y="192" width="16" height="16" fill="#e60012"/>
<rect x="32" y="208" width="16" height="16" fill="#e60012"/>
<rect x="32" y="224" width="16" height="16" fill="#e60012"/>
<rect x="32" y="240" width="16" height="16" fill="#e60012"/>
<rect x="32" y="256" width="16" height="16" fill="#e60012"/>
<rect x="32" y="272" width="16" height="16" fill="#e60012"/>
<rect x="32" y="288" width="16" height="16" fill="#e60012"/>
<rect x="32" y="304" width="16" height="16" fill="#e60012"/>
<rect x="32" y="320" width="16" height="16" fill="#e60012"/>
<rect x="32" y="336" width="16" height="16" fill="#e60012"/>
<rect x="32" y="352" width="16" height="16" fill="#e60012"/>
<rect x="32" y="368" width="16" height="16" fill="#e60012"/>
<rect x="32" y="384" width="16" height="16" fill="#e60012"/>
<rect x="32" y="400" width="16" height="16" fill="#e60012"/>
<rect x="32" y="416" width="16" height="16" fill="#e60012"/>
<rect x="32" y="432" width="16" height="16" fill="#e60012"/>
<rect x="32" y="448" width="16" height="16" fill="#e60012"/>
<rect x="464" y="48" width="16" height="16" fill="#e60012"/>
<rect x="464" y="64" width="16" height="16" fill="#e60012"/>
<rect x="464" y="80" width="16" height="16" fill="#e60012"/>
<rect x="464" y="96" width="16" height="16" fill="#e60012"/>
<rect x="464" y="112" width="16" height="16" fill="#e60012"/>
<rect x="464" y="128" width="16" height="16" fill="#e60012"/>
<rect x="464" y="144" width="16" height="16" fill="#e60012"/>
<rect x="464" y="160" width="16" height="16" fill="#e60012"/>
<rect x="464" y="176" width="16" height="16" fill="#e60012"/>
<rect x="464" y="192" width="16" height="16" fill="#e60012"/>
<rect x="464" y="208" width="16" height="16" fill="#e60012"/>
<rect x="464" y="224" width="16" height="16" fill="#e60012"/>
<rect x="464" y="240" width="16" height="16" fill="#e60012"/>
<rect x="464" y="256" width="16" height="16" fill="#e60012"/>
<rect x="464" y="272" width="16" height="16" fill="#e60012"/>
<rect x="464" y="288" width="16" height="16" fill="#e60012"/>
<rect x="464" y="304" width="16" height="16" fill="#e60012"/>
<rect x="464" y="320" width="16" height="16" fill="#e60012"/>
<rect x="464" y="336" width="16" height="16" fill="#e60012"/>
<rect x="464" y="352" width="16" height="16" fill="#e60012"/>
<rect x="464" y="368" width="16" height="16" fill="#e60012"/>
<rect x="464" y="384" width="16" height="16" fill="#e60012"/>
<rect x="464" y="400" width="16" height="16" fill="#e60012"/>
<rect x="464" y="416" width="16" height="16" fill="#e60012"/>
<rect x="464" y="432" width="16" height="16" fill="#e60012"/>
<rect x="464" y="448" width="16" height="16" fill="#e60012"/>
<rect x="176" y="128" width="16" height="16" fill="#f5f5f5"/>
<rect x="192" y="128" width="16" height="16" fill="#f5f5f5"/>
<rect x="208" y="128" width="16" height="16" fill="#f5f5f5"/>
<rect x="224" y="128" width="16" height="16" fill="#f5f5f5"/>
<rect x="240" y="128" width="16" height="16" fill="#f5f5f5"/>
<rect x="256" y="128" width="16" height="16" fill="#f5f5f5"/>
<rect x="272" y="128" width="16" height="16" fill="#f5f5f5"/>
<rect x="288" y="128" width="16" height="16" fill="#f5f5f5"/>
<rect x="304" y="128" width="16" height="16" fill="#f5f5f5"/>
<rect x="320" y="128" width="16" height="16" fill="#f5f5f5"/>
<rect x="160" y="144" width="16" height="16" fill="#f5f5f5"/>
<rect x="176" y="144" width="16" height="16" fill="#f5f5f5"/>
<rect x="320" y="144" width="16" height="16" fill="#f5f5f5"/>
<rect x="336" y="144" width="16" height="16" fill="#f5f5f5"/>
<rect x="144" y="160" width="16" height="16" fill="#f5f5f5"/>
<rect x="160" y="160" width="16" height="16" fill="#f5f5f5"/>
<rect x="144" y="176" width="16" height="16" fill="#f5f5f5"/>
<rect x="160" y="176" width="16" height="16" fill="#f5f5f5"/>
<rect x="144" y="192" width="16" height="16" fill="#f5f5f5"/>
<rect x="160" y="192" width="16" height="16" fill="#f5f5f5"/>
<rect x="144" y="208" width="16" height="16" fill="#f5f5f5"/>
<rect x="160" y="208" width="16" height="16" fill="#f5f5f5"/>
<rect x="144" y="224" width="16" height="16" fill="#f5f5f5"/>
<rect x="160" y="224" width="16" height="16" fill="#f5f5f5"/>
<rect x="144" y="240" width="16" height="16" fill="#f5f5f5"/>
<rect x="160" y="240" width="16" height="16" fill="#f5f5f5"/>
<rect x="144" y="256" width="16" height="16" fill="#f5f5f5"/>
<rect x="160" y="256" width="16" height="16" fill="#f5f5f5"/>
<rect x="144" y="272" width="16" height="16" fill="#f5f5f5"/>
<rect x="160" y="272" width="16" height="16" fill="#f5f5f5"/>
<rect x="144" y="288" width="16" height="16" fill="#f5f5f5"/>
<rect x="160" y="288" width="16" height="16" fill="#f5f5f5"/>
<rect x="144" y="304" width="16" height="16" fill="#f5f5f5"/>
<rect x="160" y="304" width="16" height="16" fill="#f5f5f5"/>
<rect x="144" y="320" width="16" height="16" fill="#f5f5f5"/>
<rect x="160" y="320" width="16" height="16" fill="#f5f5f5"/>
<rect x="144" y="336" width="16" height="16" fill="#f5f5f5"/>
<rect x="160" y="336" width="16" height="16" fill="#f5f5f5"/>
<rect x="336" y="160" width="16" height="16" fill="#f5f5f5"/>
<rect x="352" y="160" width="16" height="16" fill="#f5f5f5"/>
<rect x="336" y="176" width="16" height="16" fill="#f5f5f5"/>
<rect x="352" y="176" width="16" height="16" fill="#f5f5f5"/>
<rect x="336" y="192" width="16" height="16" fill="#f5f5f5"/>
<rect x="352" y="192" width="16" height="16" fill="#f5f5f5"/>
<rect x="336" y="208" width="16" height="16" fill="#f5f5f5"/>
<rect x="352" y="208" width="16" height="16" fill="#f5f5f5"/>
<rect x="336" y="224" width="16" height="16" fill="#f5f5f5"/>
<rect x="352" y="224" width="16" height="16" fill="#f5f5f5"/>
<rect x="336" y="240" width="16" height="16" fill="#f5f5f5"/>
<rect x="352" y="240" width="16" height="16" fill="#f5f5f5"/>
<rect x="336" y="256" width="16" height="16" fill="#f5f5f5"/>
<rect x="352" y="256" width="16" height="16" fill="#f5f5f5"/>
<rect x="336" y="272" width="16" height="16" fill="#f5f5f5"/>
<rect x="352" y="272" width="16" height="16" fill="#f5f5f5"/>
<rect x="336" y="288" width="16" height="16" fill="#f5f5f5"/>
<rect x="352" y="288" width="16" height="16" fill="#f5f5f5"/>
<rect x="336" y="304" width="16" height="16" fill="#f5f5f5"/>
<rect x="352" y="304" width="16" height="16" fill="#f5f5f5"/>
<rect x="336" y="320" width="16" height="16" fill="#f5f5f5"/>
<rect x="352" y="320" width="16" height="16" fill="#f5f5f5"/>
<rect x="336" y="336" width="16" height="16" fill="#f5f5f5"/>
<rect x="352" y="336" width="16" height="16" fill="#f5f5f5"/>
<rect x="160" y="352" width="16" height="16" fill="#f5f5f5"/>
<rect x="176" y="352" width="16" height="16" fill="#f5f5f5"/>
<rect x="320" y="352" width="16" height="16" fill="#f5f5f5"/>
<rect x="336" y="352" width="16" height="16" fill="#f5f5f5"/>
<rect x="176" y="368" width="16" height="16" fill="#f5f5f5"/>
<rect x="192" y="368" width="16" height="16" fill="#f5f5f5"/>
<rect x="208" y="368" width="16" height="16" fill="#f5f5f5"/>
<rect x="224" y="368" width="16" height="16" fill="#f5f5f5"/>
<rect x="240" y="368" width="16" height="16" fill="#f5f5f5"/>
<rect x="256" y="368" width="16" height="16" fill="#f5f5f5"/>
<rect x="272" y="368" width="16" height="16" fill="#f5f5f5"/>
<rect x="288" y="368" width="16" height="16" fill="#f5f5f5"/>
<rect x="304" y="368" width="16" height="16" fill="#f5f5f5"/>
<rect x="320" y="368" width="16" height="16" fill="#f5f5f5"/>
</svg>